<svg xmlns="http://www.w3.org/2000/svg" xmlns:xlink="http://www.w3.org/1999/xlink" version="1.1" x="0px" y="0px" viewBox="0 0 20 25" xml:space="preserve"><g transform="translate(-510 -1340)"><path xmlns="http://www.w3.org/2000/svg" xmlns:xlink="http://www.w3.org/1999/xlink" d="M525,1343c-3,0-5,1-5,1s-2-1-5-1s-5,1-5,1v13c0,0,2-1,5-1s5,1,5,1s2-1,5-1s5,1,5,1v-13   C530,1344,528,1343,525,1343z M519,1355.568c-0.956-0.281-2.338-0.568-4-0.568s-3.044,0.287-4,0.568v-10.896   c0.739-0.266,2.172-0.672,4-0.672c1.845,0,3.266,0.404,4,0.669V1355.568z M529,1355.568c-0.956-0.281-2.338-0.568-4-0.568   s-3.044,0.287-4,0.568v-10.896c0.739-0.266,2.172-0.672,4-0.672c1.845,0,3.266,0.404,4,0.669V1355.568z"/></g><text x="0" y="35" fill="#000000" font-size="5px" font-weight="bold" font-family="'Helvetica Neue', Helvetica, Arial-Unicode, Arial, Sans-serif">Created by Hea Poh Lin</text><text x="0" y="40" fill="#000000" font-size="5px" font-weight="bold" font-family="'Helvetica Neue', Helvetica, Arial-Unicode, Arial, Sans-serif">from the Noun Project</text></svg>