<svg xmlns="http://www.w3.org/2000/svg" xmlns:xlink="http://www.w3.org/1999/xlink" version="1.1" x="0px" y="0px" viewBox="0 0 20 25" xml:space="preserve"><g transform="translate(-150 -1280)"><path xmlns="http://www.w3.org/2000/svg" xmlns:xlink="http://www.w3.org/1999/xlink" d="M168.75,1295.2c-1.094-0.95-5-2.533-5-2.533s-2.5-1.267-1.25-2.533c0.506-0.513,0.801-1.441,0.98-2.446   c0.291-0.007,0.678-0.645,0.889-1.499c0.223-0.905,0.163-1.699-0.135-1.774c-0.148-0.038-0.326,0.109-0.495,0.378   c0.009-0.394,0.011-0.749,0.011-0.992c0-1.267-1.25-3.8-3.75-3.8s-3.75,2.533-3.75,3.8c0,0.243,0.002,0.599,0.011,0.992   c-0.169-0.269-0.347-0.416-0.495-0.378c-0.298,0.075-0.357,0.869-0.135,1.774c0.211,0.854,0.598,1.492,0.889,1.499   c0.18,1.005,0.475,1.934,0.98,2.446c1.25,1.267-1.25,2.533-1.25,2.533s-3.906,1.583-5,2.533c-1.094,0.95-1.25,3.8-1.25,3.8h10h10   C170,1299,169.844,1296.15,168.75,1295.2z"/></g><text x="0" y="35" fill="#000000" font-size="5px" font-weight="bold" font-family="'Helvetica Neue', Helvetica, Arial-Unicode, Arial, Sans-serif">Created by Hea Poh Lin</text><text x="0" y="40" fill="#000000" font-size="5px" font-weight="bold" font-family="'Helvetica Neue', Helvetica, Arial-Unicode, Arial, Sans-serif">from the Noun Project</text></svg>