<svg xmlns="http://www.w3.org/2000/svg" xmlns:xlink="http://www.w3.org/1999/xlink" version="1.1" x="0px" y="0px" viewBox="0 0 20 25" xml:space="preserve"><g transform="translate(-570 -2000)"><g xmlns="http://www.w3.org/2000/svg" xmlns:xlink="http://www.w3.org/1999/xlink"><path d="M580,2000c-5.523,0-10,4.477-10,10s4.477,10,10,10c5.523,0,10-4.477,10-10S585.523,2000,580,2000z M580,2004    c0.828,0,1.5,0.672,1.5,1.5s-0.672,1.5-1.5,1.5c-0.828,0-1.5-0.672-1.5-1.5S579.172,2004,580,2004z M579.99,2018    c-0.139,0-0.275-0.006-0.41-0.021c-2.02-0.203-3.596-1.91-3.596-3.984c0-2.211,1.793-4.004,4.006-4.004    c2.211,0,4.004-1.793,4.004-4.006c0-2.074-1.575-3.779-3.595-3.984c4.231,0.215,7.601,3.705,7.601,7.99    C588,2014.414,584.414,2018,579.99,2018z"/><circle cx="580" cy="2014.499" r="1.5"/></g></g><text x="0" y="35" fill="#000000" font-size="5px" font-weight="bold" font-family="'Helvetica Neue', Helvetica, Arial-Unicode, Arial, Sans-serif">Created by Hea Poh Lin</text><text x="0" y="40" fill="#000000" font-size="5px" font-weight="bold" font-family="'Helvetica Neue', Helvetica, Arial-Unicode, Arial, Sans-serif">from the Noun Project</text></svg>